<svg xmlns="http://www.w3.org/2000/svg" viewBox="0 0 400 300"><defs><linearGradient id="g" x1="0" y1="0" x2="1" y2="1"><stop offset="0" stop-color="#FFF5C2"/><stop offset="1" stop-color="#FFE58A"/></linearGradient></defs><rect width="400" height="300" fill="url(#g)"/><ellipse cx="200" cy="255" rx="120" ry="14" fill="#000" opacity=".12"/><rect x="90" y="140" width="220" height="100" rx="10" fill="#FBE9B0"/><rect x="90" y="140" width="220" height="30" rx="10" fill="#FFFDF5"/><rect x="120" y="100" width="160" height="50" rx="10" fill="#FBE9B0"/><rect x="120" y="100" width="160" height="24" rx="10" fill="#FFFDF5"/><ellipse cx="110" cy="172" rx="10" ry="16" fill="#FFFDF5"/><ellipse cx="150" cy="172" rx="10" ry="16" fill="#FFFDF5"/><ellipse cx="200" cy="172" rx="10" ry="16" fill="#FFFDF5"/><ellipse cx="250" cy="172" rx="10" ry="16" fill="#FFFDF5"/><ellipse cx="290" cy="172" rx="10" ry="16" fill="#FFFDF5"/><circle cx="160" cy="96" r="9" fill="#F9A825"/><circle cx="200" cy="92" r="9" fill="#F9A825"/><circle cx="240" cy="96" r="9" fill="#F9A825"/><circle cx="160" cy="215" r="10" fill="#F6C945"/><circle cx="240" cy="215" r="10" fill="#F6C945"/><circle cx="200" cy="215" r="10" fill="#F6C945"/></svg>